<svg width="32" height="32" viewBox="0 0 32 32" fill="none" xmlns="http://www.w3.org/2000/svg">
<path d="M16 3.2C12.8335 3.2 9.92301 4.35566 7.6875 6.26666C7.57545 6.35587 7.48251 6.46672 7.41421 6.59262C7.34592 6.71851 7.30368 6.85687 7.29001 6.99944C7.27634 7.14201 7.29152 7.28587 7.33464 7.42245C7.37776 7.55903 7.44795 7.68552 7.54101 7.79439C7.63406 7.90327 7.74809 7.99228 7.87629 8.05614C8.00449 8.12 8.14424 8.15738 8.2872 8.16607C8.43016 8.17476 8.57341 8.15457 8.7084 8.10671C8.84339 8.05885 8.96736 7.9843 9.07292 7.8875C10.9377 6.29343 13.351 5.33333 16 5.33333C21.543 5.33333 26.0811 9.53379 26.6146 14.9333H23.4667L27.7333 21.3333L32 14.9333H28.7458C28.2005 8.3751 22.6964 3.2 16 3.2ZM4.26667 10.6667L0 17.0667H3.25417C3.79955 23.6249 9.30364 28.8 16 28.8C19.1665 28.8 22.077 27.6443 24.3125 25.7333C24.4246 25.6441 24.5175 25.5333 24.5858 25.4074C24.6541 25.2815 24.6963 25.1431 24.71 25.0006C24.7237 24.858 24.7085 24.7141 24.6654 24.5775C24.6222 24.441 24.5521 24.3145 24.459 24.2056C24.3659 24.0967 24.2519 24.0077 24.1237 23.9438C23.9955 23.88 23.8558 23.8426 23.7128 23.8339C23.5698 23.8252 23.4266 23.8454 23.2916 23.8933C23.1566 23.9411 23.0326 24.0157 22.9271 24.1125C21.0623 25.7066 18.649 26.6667 16 26.6667C10.457 26.6667 5.91895 22.4662 5.38542 17.0667H8.53333L4.26667 10.6667Z" fill="white"/>
</svg>
